<mxfile host="65bd71144e">
    <diagram id="57txd1_DVboj-DCTx0qN" name="Page-1">
        <mxGraphModel dx="1677" dy="872" grid="1" gridSize="10" guides="1" tooltips="1" connect="1" arrows="1" fold="1" page="1" pageScale="1" pageWidth="850" pageHeight="1100" math="0" shadow="0">
            <root>
                <mxCell id="0"/>
                <mxCell id="1" parent="0"/>
                <mxCell id="2" value="Header" style="shape=ext;double=1;rounded=0;whiteSpace=wrap;html=1;" vertex="1" parent="1">
                    <mxGeometry x="-140" width="700" height="80" as="geometry"/>
                </mxCell>
                <mxCell id="4" value="fitindex :&amp;nbsp; text management" style="shape=ext;double=1;rounded=0;whiteSpace=wrap;html=1;" vertex="1" parent="1">
                    <mxGeometry x="-140" y="90" width="700" height="220" as="geometry"/>
                </mxCell>
                <mxCell id="5" value="staisfied client" style="shape=ext;double=1;rounded=0;whiteSpace=wrap;html=1;" vertex="1" parent="1">
                    <mxGeometry x="-140" y="330" width="700" height="160" as="geometry"/>
                </mxCell>
                <mxCell id="6" value="footer" style="shape=ext;double=1;rounded=0;whiteSpace=wrap;html=1;" vertex="1" parent="1">
                    <mxGeometry x="-140" y="630" width="700" height="220" as="geometry"/>
                </mxCell>
            </root>
        </mxGraphModel>
    </diagram>
</mxfile>